<svg width="770" height="596" viewBox="0 0 770 596" fill="none" xmlns="http://www.w3.org/2000/svg">
<g clip-path="url(#clip0_220_108)">
<path opacity="0.18" d="M167.215 127.339C121.715 150.36 74.8333 174.47 43.1188 213.025C24.0733 236.206 11.3833 263.8 4.70104 292.512C-6.74524 341.52 1.7288 398.334 41.1057 432.038C54.8075 443.818 71.5659 452.134 88.8513 458.523C124.682 471.743 163.195 477.151 201.533 474.347C233.016 472.021 264.445 464.164 295.77 467.908C333.977 472.46 367.335 493.624 402.929 507.561C447.156 524.81 495.314 531.031 542.803 525.631C554.776 524.253 566.897 522.047 577.427 516.476C589.927 509.857 599.191 499.045 609.046 489.162C631.267 466.794 657.476 448.312 686.472 434.563C701.681 427.356 717.796 421.376 731.003 411.233C765.784 384.577 771.739 336.877 769.716 294.578C767.692 252.279 757.626 205.588 721.886 179.901C713.907 174.17 704.927 169.728 697.191 163.688C671.389 143.542 663.674 109.818 647.148 82.2546C610.09 20.618 527.404 -6.36669 452.961 1.26051C346.287 12.1922 258.922 80.9468 167.215 127.339Z" fill="#585A5F"/>
<path d="M616.15 50.3954H184.448V523.971H616.15V50.3954Z" fill="#A7836C"/>
<path d="M616.15 50.3954H184.448V523.971H616.15V50.3954Z" fill="white"/>
<path opacity="0.7" d="M556.821 73.287L184.448 104.904C186.123 104.904 184.448 60.9777 184.448 50.3954H577.057V54.1092C577.057 59.1938 574.926 64.0702 571.131 67.6665C567.336 71.2627 562.189 73.2844 556.821 73.287Z" fill="#DADADA"/>
<path d="M616.15 104.904H184.448V578.479H616.15V104.904Z" fill="#16689B"/>
<path d="M245.821 104.904H184.448V578.479H245.821V104.904Z" fill="url(#paint0_linear_220_108)"/>
<path d="M283.111 193.415H208.542V264.047H283.111V193.415Z" fill="white"/>
<path d="M361.823 193.415H287.253V264.047H361.823V193.415Z" fill="white"/>
<path d="M440.545 193.415H365.976V264.047H440.545V193.415Z" fill="white"/>
<path d="M519.257 193.415H444.687V264.047H519.257V193.415Z" fill="white"/>
<path d="M283.111 267.152H208.542V337.783H283.111V267.152Z" fill="white"/>
<path d="M361.823 267.152H287.253V337.783H361.823V267.152Z" fill="white"/>
<path d="M440.545 267.152H365.976V337.783H440.545V267.152Z" fill="white"/>
<path d="M519.257 267.152H444.687V337.783H519.257V267.152Z" fill="white"/>
<path d="M283.111 340.888H208.542V411.519H283.111V340.888Z" fill="white"/>
<path d="M361.823 340.888H287.253V411.519H361.823V340.888Z" fill="white"/>
<path d="M440.545 340.888H365.976V411.519H440.545V340.888Z" fill="white"/>
<path d="M519.257 340.888H444.687V411.519H519.257V340.888Z" fill="white"/>
<path d="M283.111 414.624H208.542V485.256H283.111V414.624Z" fill="white"/>
<path d="M361.823 414.624H287.253V485.256H361.823V414.624Z" fill="white"/>
<path d="M440.545 414.624H365.976V485.256H440.545V414.624Z" fill="white"/>
<path d="M519.257 414.624H444.687V485.256H519.257V414.624Z" fill="white"/>
<path d="M283.111 488.361H208.542V558.992H283.111V488.361Z" fill="white"/>
<path d="M361.823 488.361H287.253V558.992H361.823V488.361Z" fill="white"/>
<path d="M440.545 488.361H365.976V558.992H440.545V488.361Z" fill="white"/>
<path d="M596.651 193.415H522.081V264.047H596.651V193.415Z" fill="white"/>
<path d="M596.651 119.679H522.081V190.311H596.651V119.679Z" fill="white"/>
<path d="M519.257 119.679H444.687V190.311H519.257V154.995V119.679Z" fill="white"/>
<path d="M596.651 267.152H522.081V337.783H596.651V267.152Z" fill="white"/>
<path d="M596.651 340.888H522.081V411.519H596.651V340.888Z" fill="white"/>
<path d="M596.651 414.624H522.081V485.256H596.651V414.624Z" fill="white"/>
<path d="M217.891 31.2476V69.5433C217.891 71.6098 220.662 73.287 224.067 73.287C227.482 73.287 230.243 71.6098 230.243 69.5433V31.2476C230.243 29.181 227.482 27.5038 224.067 27.5038C220.662 27.5038 217.891 29.181 217.891 31.2476Z" fill="#676767"/>
<path d="M276.935 31.2476V69.5433C276.935 71.6098 279.696 73.287 283.111 73.287C286.526 73.287 289.288 71.6098 289.288 69.5433V31.2476C289.288 29.181 286.526 27.5038 283.111 27.5038C279.696 27.5038 276.935 29.181 276.935 31.2476Z" fill="#676767"/>
<path d="M335.979 31.2476V69.5433C335.979 71.6098 338.741 73.287 342.156 73.287C345.57 73.287 348.332 71.6098 348.332 69.5433V31.2476C348.332 29.181 345.57 27.5038 342.156 27.5038C338.741 27.5038 335.979 29.181 335.979 31.2476Z" fill="#676767"/>
<path d="M395.023 31.2476V69.5433C395.023 71.6098 397.785 73.287 401.2 73.287C404.604 73.287 407.376 71.6098 407.376 69.5433V31.2476C407.376 29.181 404.604 27.5038 401.2 27.5038C397.785 27.5038 395.023 29.181 395.023 31.2476Z" fill="#676767"/>
<path d="M454.057 31.2476V69.5433C454.057 71.6098 456.829 73.287 460.244 73.287C463.648 73.287 466.42 71.6098 466.42 69.5433V31.2476C466.42 29.181 463.648 27.5038 460.244 27.5038C456.829 27.5038 454.057 29.181 454.057 31.2476Z" fill="#676767"/>
<path d="M513.102 31.2476V69.5433C513.102 71.6098 515.873 73.287 519.278 73.287C522.693 73.287 525.465 71.6098 525.465 69.5433V31.2476C525.465 29.181 522.693 27.5038 519.278 27.5038C515.873 27.5038 513.102 29.181 513.102 31.2476Z" fill="#676767"/>
<path d="M570.881 31.2476V69.5433C570.881 71.6098 573.653 73.287 577.057 73.287C580.472 73.287 583.234 71.6098 583.234 69.5433V31.2476C583.234 29.181 580.472 27.5038 577.057 27.5038C573.653 27.5038 570.881 29.181 570.881 31.2476Z" fill="#676767"/>
<path d="M625.983 50.3954H616.16V578.479H625.983V50.3954Z" fill="#16689B"/>
<path d="M461.909 130.032C461.911 131.144 461.565 132.232 460.914 133.158C460.262 134.084 459.336 134.806 458.251 135.233C457.166 135.659 455.972 135.771 454.82 135.555C453.668 135.338 452.61 134.803 451.78 134.016C450.949 133.229 450.384 132.227 450.155 131.136C449.926 130.045 450.045 128.914 450.495 127.886C450.946 126.859 451.708 125.981 452.685 125.364C453.663 124.747 454.811 124.419 455.986 124.421C457.556 124.424 459.061 125.016 460.171 126.067C461.282 127.119 461.907 128.545 461.909 130.032Z" fill="url(#paint1_linear_220_108)"/>
<path d="M461.909 203.778C461.911 204.891 461.565 205.979 460.914 206.904C460.262 207.83 459.336 208.552 458.251 208.979C457.166 209.405 455.972 209.518 454.82 209.301C453.668 209.085 452.61 208.549 451.78 207.762C450.949 206.976 450.384 205.973 450.155 204.882C449.926 203.791 450.045 202.66 450.495 201.633C450.946 200.605 451.708 199.727 452.685 199.111C453.663 198.494 454.811 198.165 455.986 198.167C457.556 198.17 459.061 198.762 460.171 199.814C461.282 200.865 461.907 202.291 461.909 203.778Z" fill="url(#paint2_linear_220_108)"/>
<path d="M476.402 203.778C476.404 204.891 476.057 205.979 475.406 206.904C474.755 207.83 473.828 208.552 472.743 208.979C471.659 209.405 470.465 209.518 469.313 209.301C468.161 209.085 467.102 208.549 466.272 207.762C465.441 206.976 464.876 205.973 464.647 204.882C464.419 203.791 464.537 202.66 464.988 201.633C465.438 200.605 466.2 199.727 467.178 199.111C468.155 198.494 469.304 198.165 470.478 198.167C472.048 198.17 473.553 198.762 474.664 199.814C475.774 200.865 476.399 202.291 476.402 203.778Z" fill="url(#paint3_linear_220_108)"/>
<path d="M490.978 203.778C490.98 204.891 490.634 205.979 489.983 206.904C489.331 207.83 488.405 208.552 487.32 208.979C486.235 209.405 485.041 209.518 483.889 209.301C482.737 209.085 481.679 208.549 480.848 207.762C480.018 206.976 479.453 205.973 479.224 204.882C478.995 203.791 479.114 202.66 479.564 201.633C480.015 200.605 480.777 199.727 481.754 199.111C482.732 198.494 483.88 198.165 485.055 198.167C486.625 198.17 488.13 198.762 489.24 199.814C490.351 200.865 490.975 202.291 490.978 203.778Z" fill="url(#paint4_linear_220_108)"/>
<path d="M461.909 352.309C461.909 353.421 461.561 354.508 460.909 355.433C460.256 356.357 459.329 357.077 458.244 357.503C457.159 357.928 455.965 358.038 454.814 357.821C453.663 357.603 452.605 357.067 451.776 356.28C450.946 355.493 450.382 354.49 450.154 353.399C449.926 352.308 450.045 351.178 450.496 350.151C450.947 349.124 451.709 348.247 452.686 347.631C453.664 347.014 454.812 346.686 455.986 346.688C456.765 346.688 457.536 346.834 458.255 347.116C458.975 347.399 459.628 347.813 460.178 348.335C460.728 348.857 461.164 349.477 461.461 350.159C461.759 350.841 461.911 351.571 461.909 352.309Z" fill="url(#paint5_linear_220_108)"/>
<path d="M221.063 357.919C224.334 357.919 226.986 355.408 226.986 352.309C226.986 349.21 224.334 346.698 221.063 346.698C217.792 346.698 215.14 349.21 215.14 352.309C215.14 355.408 217.792 357.919 221.063 357.919Z" fill="#111111"/>
<path d="M476.402 352.309C476.402 353.421 476.053 354.508 475.401 355.433C474.748 356.357 473.821 357.077 472.736 357.503C471.651 357.928 470.458 358.038 469.306 357.821C468.155 357.603 467.098 357.067 466.268 356.28C465.439 355.493 464.874 354.49 464.647 353.399C464.419 352.308 464.538 351.178 464.989 350.151C465.439 349.124 466.201 348.247 467.179 347.631C468.156 347.014 469.304 346.686 470.478 346.688C471.257 346.688 472.028 346.834 472.747 347.116C473.467 347.399 474.12 347.813 474.67 348.335C475.221 348.857 475.657 349.477 475.954 350.159C476.251 350.841 476.403 351.571 476.402 352.309Z" fill="url(#paint6_linear_220_108)"/>
<path d="M490.978 352.309C490.978 353.421 490.63 354.508 489.977 355.433C489.325 356.357 488.398 357.077 487.313 357.503C486.228 357.928 485.034 358.038 483.883 357.821C482.731 357.603 481.674 357.067 480.845 356.28C480.015 355.493 479.451 354.49 479.223 353.399C478.995 352.308 479.114 351.178 479.565 350.151C480.016 349.124 480.778 348.247 481.755 347.631C482.733 347.014 483.881 346.686 485.055 346.688C485.834 346.688 486.605 346.834 487.324 347.116C488.043 347.399 488.697 347.813 489.247 348.335C489.797 348.857 490.233 349.477 490.53 350.159C490.828 350.841 490.98 351.571 490.978 352.309Z" fill="url(#paint7_linear_220_108)"/>
<path d="M137.798 489.099H141.065L142.699 559.042L141.065 547.521H137.798V489.099Z" fill="#8EA76C"/>
<path d="M144.333 489.099H141.065V547.521H144.333V489.099Z" fill="#8EA76C"/>
<path d="M114.494 497.316C112.65 502.717 118.479 513.409 124.128 518.939C129.777 524.47 133.614 523.202 139.369 521.625C141.213 516.224 142.783 512.54 137.124 507.009C131.464 501.479 120.249 495.738 114.494 497.316Z" fill="#8EA76C"/>
<path d="M168.153 497.585C162.451 495.828 151.163 501.359 145.324 506.71C139.484 512.061 140.823 515.695 142.488 521.146C148.19 522.893 152.08 524.38 157.919 519.019C163.758 513.658 169.829 503.036 168.153 497.585Z" fill="#8EA76C"/>
<path d="M141.065 474.993H126.478C126.478 484.807 133.003 492.763 141.055 492.763L144.491 484.048L141.065 474.993Z" fill="#8EA76C"/>
<path d="M141.065 474.993H155.642C155.642 484.807 149.118 492.763 141.065 492.763V474.993Z" fill="#8EA76C"/>
<path d="M113.451 454.977C111.607 460.378 117.435 471.08 123.095 476.6C128.755 482.121 132.581 480.873 138.325 479.286C140.17 473.885 141.74 470.201 136.08 464.67C130.42 459.14 119.206 453.399 113.451 454.977Z" fill="#8EA76C"/>
<path d="M167.12 455.236C161.407 453.489 150.119 459.01 144.291 464.371C138.462 469.732 139.78 473.356 141.445 478.797C147.147 480.544 151.047 482.031 156.875 476.67C162.704 471.309 168.785 460.697 167.12 455.236Z" fill="#8EA76C"/>
<path d="M140.802 437.995C135.406 440.471 131.316 451.852 130.979 459.549C130.642 467.246 134.836 476.301 140.022 479.146C145.418 476.67 148.76 467.885 149.065 460.178C149.371 452.471 145.988 440.84 140.802 437.995Z" fill="#8EA76C"/>
<path d="M112.239 538.606L117.382 577.98H141.171L150.889 555.578L141.171 537.508L112.239 538.606Z" fill="#8EA76C"/>
<path d="M170.113 538.606L164.97 577.98H141.171V537.508L170.113 538.606Z" fill="#744F38"/>
<path d="M151.774 537.778L151.51 537.897L143.437 541.691L141.234 542.749H109.098C108.128 542.749 107.198 542.384 106.512 541.735C105.826 541.085 105.441 540.204 105.441 539.285V530.48C105.441 529.561 105.826 528.68 106.512 528.03C107.198 527.381 108.128 527.016 109.098 527.016H141.234L151.774 537.778Z" fill="#744F38"/>
<path d="M173.254 542.749H141.171V527.016H173.254C174.224 527.016 175.154 527.381 175.84 528.03C176.526 528.68 176.912 529.561 176.912 530.48V539.285C176.912 540.204 176.526 541.085 175.84 541.735C175.154 542.384 174.224 542.749 173.254 542.749Z" fill="#744F38"/>
<path d="M114.494 497.316C112.65 502.717 118.479 513.409 124.128 518.939C129.777 524.47 133.614 523.202 139.369 521.625C141.213 516.224 142.783 512.54 137.124 507.009C131.464 501.479 120.249 495.738 114.494 497.316Z" fill="url(#paint8_linear_220_108)"/>
<path d="M168.153 497.585C162.451 495.828 151.163 501.359 145.324 506.71C139.484 512.061 140.823 515.695 142.488 521.146C148.19 522.893 152.08 524.38 157.919 519.019C163.758 513.658 169.829 503.036 168.153 497.585Z" fill="url(#paint9_linear_220_108)"/>
<path d="M155.442 477.888C154.314 486.324 148.306 492.763 141.065 492.763V477.559C141.181 477.968 141.318 478.377 141.445 478.807C146.662 480.404 150.372 481.792 155.442 477.888Z" fill="url(#paint10_linear_220_108)"/>
<path d="M113.451 454.977C111.607 460.378 117.435 471.08 123.095 476.6C128.755 482.121 132.581 480.873 138.325 479.286C140.17 473.885 141.74 470.201 136.08 464.67C130.42 459.14 119.206 453.399 113.451 454.977Z" fill="url(#paint11_linear_220_108)"/>
<path d="M141.181 542.749V577.98H117.382L112.776 542.749H141.181Z" fill="url(#paint12_linear_220_108)"/>
<path d="M169.576 542.749L164.97 577.98H141.181V542.749H169.576Z" fill="url(#paint13_linear_220_108)"/>
<path d="M176.912 530.879V539.685C176.912 540.603 176.526 541.484 175.84 542.134C175.154 542.784 174.224 543.149 173.254 543.149H141.234V527.415H173.307C174.268 527.428 175.184 527.799 175.859 528.447C176.534 529.095 176.912 529.969 176.912 530.879Z" fill="url(#paint14_linear_220_108)"/>
<path opacity="0.18" d="M120.154 578.03L59.6978 589.012C58.7194 589.108 57.8216 589.569 57.202 590.293C56.5823 591.016 56.2915 591.943 56.3935 592.87C56.4956 593.797 56.9821 594.647 57.746 595.234C58.51 595.821 59.4888 596.097 60.4672 596H743.302C744.265 596.038 745.204 595.719 745.922 595.11C746.639 594.502 747.078 593.653 747.146 592.744C747.213 591.834 746.903 590.935 746.282 590.238C745.661 589.541 744.777 589.101 743.819 589.012L655.695 578.509H655.189L120.924 578.01C120.667 577.992 120.41 577.999 120.154 578.03Z" fill="#1D2741"/>
<path d="M156.875 476.68C156.38 477.129 155.906 477.539 155.442 477.888C150.372 481.792 146.662 480.404 141.445 478.807C141.318 478.377 141.181 477.968 141.065 477.559C139.611 472.777 138.905 469.313 144.291 464.381C150.119 459.02 161.407 453.499 167.12 455.246C168.785 460.697 162.714 471.329 156.875 476.68Z" fill="url(#paint15_linear_220_108)"/>
</g>
<defs>
<linearGradient id="paint0_linear_220_108" x1="323.647" y1="341.387" x2="-278.262" y2="343.257" gradientUnits="userSpaceOnUse">
<stop offset="0.03" stop-opacity="0"/>
<stop offset="0.35" stop-color="#292838" stop-opacity="0.66"/>
<stop offset="0.99" stop-color="#3F3D56"/>
</linearGradient>
<linearGradient id="paint1_linear_220_108" x1="455.649" y1="125.32" x2="457.427" y2="153.815" gradientUnits="userSpaceOnUse">
<stop stop-color="#183866"/>
<stop offset="1" stop-color="#1A7FC1"/>
</linearGradient>
<linearGradient id="paint2_linear_220_108" x1="455.649" y1="199.066" x2="457.427" y2="227.571" gradientUnits="userSpaceOnUse">
<stop stop-color="#183866"/>
<stop offset="1" stop-color="#1A7FC1"/>
</linearGradient>
<linearGradient id="paint3_linear_220_108" x1="470.194" y1="199.066" x2="471.963" y2="227.571" gradientUnits="userSpaceOnUse">
<stop stop-color="#183866"/>
<stop offset="1" stop-color="#1A7FC1"/>
</linearGradient>
<linearGradient id="paint4_linear_220_108" x1="484.728" y1="199.066" x2="486.497" y2="227.571" gradientUnits="userSpaceOnUse">
<stop stop-color="#183866"/>
<stop offset="1" stop-color="#1A7FC1"/>
</linearGradient>
<linearGradient id="paint5_linear_220_108" x1="455.649" y1="347.587" x2="457.427" y2="376.092" gradientUnits="userSpaceOnUse">
<stop stop-color="#183866"/>
<stop offset="1" stop-color="#1A7FC1"/>
</linearGradient>
<linearGradient id="paint6_linear_220_108" x1="470.194" y1="347.587" x2="471.963" y2="376.092" gradientUnits="userSpaceOnUse">
<stop stop-color="#183866"/>
<stop offset="1" stop-color="#1A7FC1"/>
</linearGradient>
<linearGradient id="paint7_linear_220_108" x1="484.728" y1="347.587" x2="486.497" y2="376.092" gradientUnits="userSpaceOnUse">
<stop stop-color="#183866"/>
<stop offset="1" stop-color="#1A7FC1"/>
</linearGradient>
<linearGradient id="paint8_linear_220_108" x1="136.923" y1="488.67" x2="122.08" y2="523.091" gradientUnits="userSpaceOnUse">
<stop offset="0.01"/>
<stop offset="0.1" stop-opacity="0.77"/>
<stop offset="0.99" stop-opacity="0"/>
</linearGradient>
<linearGradient id="paint9_linear_220_108" x1="175.689" y1="512.181" x2="126.064" y2="505.461" gradientUnits="userSpaceOnUse">
<stop offset="0.01"/>
<stop offset="0.1" stop-opacity="0.77"/>
<stop offset="0.99" stop-opacity="0"/>
</linearGradient>
<linearGradient id="paint10_linear_220_108" x1="177.133" y1="464.78" x2="116.921" y2="504.558" gradientUnits="userSpaceOnUse">
<stop offset="0.01"/>
<stop offset="0.1" stop-opacity="0.77"/>
<stop offset="0.99" stop-opacity="0"/>
</linearGradient>
<linearGradient id="paint11_linear_220_108" x1="166.245" y1="422.721" x2="103.442" y2="499.758" gradientUnits="userSpaceOnUse">
<stop offset="0.01"/>
<stop offset="0.1" stop-opacity="0.77"/>
<stop offset="0.99" stop-opacity="0"/>
</linearGradient>
<linearGradient id="paint12_linear_220_108" x1="99.2328" y1="552.443" x2="168.123" y2="572.684" gradientUnits="userSpaceOnUse">
<stop offset="0.01"/>
<stop offset="0.1" stop-opacity="0.77"/>
<stop offset="0.99" stop-opacity="0"/>
</linearGradient>
<linearGradient id="paint13_linear_220_108" x1="149.951" y1="535.721" x2="168.792" y2="631.071" gradientUnits="userSpaceOnUse">
<stop offset="0.01"/>
<stop offset="0.1" stop-opacity="0.77"/>
<stop offset="0.99" stop-opacity="0"/>
</linearGradient>
<linearGradient id="paint14_linear_220_108" x1="159.299" y1="515.096" x2="158.723" y2="562.507" gradientUnits="userSpaceOnUse">
<stop offset="0.01"/>
<stop offset="0.1" stop-opacity="0.77"/>
<stop offset="0.99" stop-opacity="0"/>
</linearGradient>
<linearGradient id="paint15_linear_220_108" x1="132.191" y1="443.885" x2="180.456" y2="500.232" gradientUnits="userSpaceOnUse">
<stop offset="0.01"/>
<stop offset="0.1" stop-opacity="0.77"/>
<stop offset="0.99" stop-opacity="0"/>
</linearGradient>
<clipPath id="clip0_220_108">
<rect width="770" height="596" fill="white"/>
</clipPath>
</defs>
</svg>
